#N canvas 729 234 450 300 10;
#X obj 81 58 inlet~;
#X obj 172 61 inlet;
#X obj 124 159 outlet~;
#X obj 174 96 osc~ 1;
#X obj 123 121 *~;
#X connect 0 0 4 0;
#X connect 1 0 3 0;
#X connect 3 0 4 1;
#X connect 4 0 2 0;
