#N canvas 411 144 623 444 10;
#X obj 299 182 +~ 1;
#X obj 298 234 /~ 4;
#X obj 297 283 +~ 0.5;
#X text 381 160 oscila entre -1 y 1;
#X text 380 206 oscila entre 0 y 2;
#X text 381 253 oscila entre 0 y 0.5;
#X text 383 303 oscila entre 0.5 y 1;
#X text 280 43 Frecuencia;
#X text 382 116 LFO (Low Frequency Oscillator);
#X obj 108 121 osc~ 220;
#X obj 223 362 *~;
#X text 61 86 Oscilador de audio;
#X obj 116 189 inlet~;
#X obj 224 392 outlet~;
#X obj 299 132 osc~ 5;
#X obj 298 92 inlet;
#X connect 0 0 1 0;
#X connect 1 0 2 0;
#X connect 2 0 10 1;
#X connect 10 0 13 0;
#X connect 12 0 10 0;
#X connect 14 0 0 0;
#X connect 15 0 14 0;
