#N canvas -203 23 1199 801 10;
#X obj 250 172 matriz15_;
#X obj 752 98 r con;
#X msg 865 216 \; con 1 1 1;
#X msg 989 209 \; con 1 1 0;
#N canvas 778 145 450 300 sonidoFondo 0;
#X obj 57 122 readsf~;
#X msg 57 98 open sonidos/Fondo1.wav;
#X msg 221 98 open sonidos/Fondo2_loop.wav;
#X obj 63 207 outlet~;
#X obj 221 127 readsf~;
#X obj 258 -27 bng 15 250 50 0 empty empty empty 17 7 0 10 -262144
-1 -1;
#X msg 227 40 1;
#X msg 43 56 1;
#X obj 98 -36 bng 15 250 50 0 empty empty empty 17 7 0 10 -262144 -1
-1;
#X obj 169 -54 delay 7000;
#X obj 105 150 bng 15 250 50 0 empty empty empty 17 7 0 10 -262144
-1 -1;
#X msg 311 45 0;
#X obj 53 8 t b b;
#X obj 228 5 t b b;
#X connect 0 0 3 0;
#X connect 0 1 10 0;
#X connect 1 0 0 0;
#X connect 2 0 4 0;
#X connect 4 0 3 0;
#X connect 4 1 5 0;
#X connect 5 0 13 0;
#X connect 6 0 4 0;
#X connect 7 0 0 0;
#X connect 8 0 9 0;
#X connect 8 0 12 0;
#X connect 9 0 5 0;
#X connect 11 0 2 0;
#X connect 12 0 7 0;
#X connect 12 1 1 0;
#X connect 13 0 6 0;
#X connect 13 1 2 0;
#X restore 65 251 pd sonidoFondo;
#X obj 248 -3 player;
#X msg 248 -36 sonidos/402927__crazyadamos__baby-cry.wav;
#N canvas 58 263 710 354 bocinas_y_alarmas 0;
#X obj 69 134 player;
#X obj 146 133 player;
#X obj 219 134 player;
#X msg 69 59 sonidos/422051__inspectorj__car-alarm-distant-a.wav;
#X obj 64 332 outlet~;
#X msg 146 82 sonidos/19_sirena.wav;
#X msg 219 108 sonidos/16_policia.wav;
#X obj 273 158 player;
#X msg 273 132 sonidos/21_bocina.wav;
#X obj 328 184 player;
#X msg 328 158 sonidos/25_bocina.wav;
#X obj 376 210 player;
#X msg 376 184 sonidos/26_alarma.wav;
#X msg 429 211 sonidos/36_Horn_Car_Blowing.wav;
#X obj 429 240 player;
#X msg 490 240 sonidos/11_alarma.wav;
#X obj 491 275 player;
#X obj 530 125 bng 15 250 50 0 empty empty empty 17 7 0 10 -262144
-1 -1;
#X obj 494 99 bng 15 250 50 0 empty empty empty 17 7 0 10 -262144 -1
-1;
#X obj 444 95 bng 15 250 50 0 empty empty empty 17 7 0 10 -262144 -1
-1;
#X obj 385 69 bng 15 250 50 0 empty empty empty 17 7 0 10 -262144 -1
-1;
#X obj 328 18 bng 15 250 50 0 empty empty empty 17 7 0 10 -262144 -1
-1;
#X obj 224 23 bng 15 250 50 0 empty empty empty 17 7 0 10 -262144 -1
-1;
#X obj 154 29 bng 15 250 50 0 empty empty empty 17 7 0 10 -262144 -1
-1;
#X obj 65 17 bng 15 250 50 0 empty empty empty 17 7 0 10 -262144 -1
-1;
#X connect 0 0 4 0;
#X connect 1 0 4 0;
#X connect 2 0 4 0;
#X connect 3 0 0 0;
#X connect 5 0 1 0;
#X connect 6 0 2 0;
#X connect 7 0 4 0;
#X connect 8 0 7 0;
#X connect 9 0 4 0;
#X connect 10 0 9 0;
#X connect 11 0 4 0;
#X connect 12 0 11 0;
#X connect 13 0 14 0;
#X connect 14 0 4 0;
#X connect 15 0 16 0;
#X connect 16 0 4 0;
#X connect 17 0 15 0;
#X connect 18 0 13 0;
#X connect 19 0 12 0;
#X connect 20 0 10 0;
#X connect 21 0 8 0;
#X connect 22 0 6 0;
#X connect 23 0 5 0;
#X connect 24 0 3 0;
#X restore 282 25 pd bocinas_y_alarmas;
#X msg 315 52 sonidos/04_martillo.wav;
#X obj 315 84 player;
#X msg 345 -7 sonidos/90_Church_bells-toll_12oclock.wav;
#X obj 347 118 player;
#N canvas 204 73 537 737 flanger 0;
#X obj 12 336 *~;
#X obj 10 176 osc~;
#X obj 11 206 +~ 1;
#X obj 11 268 *~;
#X floatatom 112 113 5 0 0 0 - - -;
#X obj 115 186 hsl 128 15 0 1 0 0 empty empty empty -2 -8 0 10 -262144
-1 -1 10600 1;
#X text 196 202 FEEDBACK;
#X text 148 116 FREC.LFO;
#X obj -9 466 +~;
#X obj -48 97 inlet~;
#X obj -8 507 outlet~;
#X obj 112 14 r~ flanger-feedback;
#X obj 24 399 s~ flanger-feedback;
#X obj 11 303 vd~ flanger-delay;
#X obj 99 70 delwrite~ flanger-delay 300;
#X obj 10 238 /~ 2;
#X obj 115 143 hsl 128 15 1 100 0 0 empty empty empty -2 -8 0 10 -262144
-1 -1 7400 1;
#X text 198 162 RETARDO;
#X floatatom 124 164 5 0 0 0 - - -;
#X floatatom 121 212 5 0 0 0 - - -;
#X connect 0 0 8 1;
#X connect 0 0 12 0;
#X connect 1 0 2 0;
#X connect 2 0 15 0;
#X connect 3 0 13 0;
#X connect 4 0 1 0;
#X connect 5 0 0 1;
#X connect 5 0 19 0;
#X connect 8 0 10 0;
#X connect 9 0 8 0;
#X connect 9 0 14 0;
#X connect 11 0 14 0;
#X connect 13 0 0 0;
#X connect 15 0 3 0;
#X connect 16 0 3 1;
#X connect 16 0 18 0;
#X coords 0 -1 1 1 170 140 2 100 100;
#X restore 199 605 pd flanger;
#X text 206 585 FLANGER;
#N canvas 217 67 1065 592 multitap 0;
#X obj 755 358 *~;
#X obj 115 354 hsl 100 22 0 0.15 0 0 re empty empty -2 -8 0 10 -232576
-159808 -1 6800 1;
#X obj 114 135 hsl 100 22 1 2000 0 0 r1 empty empty -2 -8 0 10 -232576
-159808 -1 7500 1;
#X floatatom 222 135 5 0 0 0 - r1 -;
#X floatatom 224 354 5 0 0 0 - re -;
#X text 260 137 Retardo 1;
#X obj 114 169 hsl 100 22 1 2000 0 0 r2 retardo2 empty -2 -8 0 10 -232576
-159808 -1 5000 1;
#X floatatom 222 169 5 0 0 0 - r2 -;
#X obj 114 203 hsl 100 22 1 2000 0 0 r3 empty empty -2 -8 0 10 -232576
-159808 -1 7100 1;
#X floatatom 222 203 5 0 0 0 - r3 -;
#X obj 114 239 hsl 100 22 1 2000 0 0 r4 empty empty -2 -8 0 10 -232576
-159808 -1 6000 1;
#X floatatom 222 239 5 0 0 0 - r4 -;
#X obj 114 273 hsl 100 22 1 2000 0 0 r5 empty empty -2 -8 0 10 -232576
-159808 -1 7000 1;
#X floatatom 222 273 5 0 0 0 - r5 -;
#X obj 114 307 hsl 100 22 1 2000 0 0 r6 empty empty -2 -8 0 10 -232576
-159808 -1 4500 1;
#X floatatom 222 307 5 0 0 0 - r6 -;
#X text 260 171 Retardo 2;
#X text 260 205 Retardo 3;
#X text 260 241 Retardo 4;
#X text 260 275 Retardo 5;
#X text 260 309 Retardo 6;
#X obj 782 327 r re;
#X obj 506 77 r~ realim;
#X obj 456 150 r r1;
#X msg 456 181 \$1 100;
#X obj 456 245 vd~ mtap;
#X obj 454 108 delwrite~ mtap 2000;
#X msg 544 181 \$1 100;
#X obj 544 245 vd~ mtap;
#X msg 633 181 \$1 100;
#X obj 633 245 vd~ mtap;
#X msg 722 181 \$1 100;
#X obj 722 245 vd~ mtap;
#X msg 810 181 \$1 100;
#X obj 810 245 vd~ mtap;
#X msg 899 181 \$1 100;
#X obj 899 245 vd~ mtap;
#X obj 544 150 r r2;
#X obj 633 150 r r3;
#X obj 722 150 r r4;
#X obj 810 150 r r5;
#X obj 899 150 r r6;
#N canvas 0 22 450 300 suma 0;
#X obj 194 74 inlet~;
#X obj 195 123 outlet~;
#X connect 0 0 1 0;
#X restore 687 316 pd suma;
#X obj 421 346 +~;
#X floatatom 866 366 5 0 0 0 - - -;
#X obj 755 392 s~ realim;
#X text 108 378 UTILIZAR CON PRECAUCIÓN;
#X obj 456 213 line~;
#X obj 544 213 line~;
#X obj 633 213 line~;
#X obj 722 213 line~;
#X obj 810 213 line~;
#X obj 899 213 line~;
#X text 259 355 Feedback;
#X obj 421 383 outlet~;
#X obj 415 69 inlet~;
#X connect 0 0 45 0;
#X connect 21 0 0 1;
#X connect 21 0 44 0;
#X connect 22 0 26 0;
#X connect 23 0 24 0;
#X connect 24 0 47 0;
#X connect 25 0 42 0;
#X connect 27 0 48 0;
#X connect 28 0 42 0;
#X connect 29 0 49 0;
#X connect 30 0 42 0;
#X connect 31 0 50 0;
#X connect 32 0 42 0;
#X connect 33 0 51 0;
#X connect 34 0 42 0;
#X connect 35 0 52 0;
#X connect 36 0 42 0;
#X connect 37 0 27 0;
#X connect 38 0 29 0;
#X connect 39 0 31 0;
#X connect 40 0 33 0;
#X connect 41 0 35 0;
#X connect 42 0 0 0;
#X connect 42 0 43 1;
#X connect 43 0 54 0;
#X connect 47 0 25 0;
#X connect 48 0 28 0;
#X connect 49 0 30 0;
#X connect 50 0 32 0;
#X connect 51 0 34 0;
#X connect 52 0 36 0;
#X connect 55 0 26 0;
#X connect 55 0 43 0;
#X coords 0 -1 1 1 220 300 2 100 100;
#X restore 385 605 pd multitap;
#X obj 618 608 LFO_AM;
#X floatatom 651 585 5 0 0 0 - - -;
#X obj 350 -62 bng 15 250 50 0 empty empty empty 17 7 0 10 -262144
-1 -1;
#X obj 743 606 convolucion;
#X floatatom 806 579 5 0 0 0 - - -;
#X obj 66 295 throw~ sonidosTodos;
#X obj 887 315 output~;
#X msg 381 83 sonidos/14_pasos.wav;
#X obj 381 139 player;
#N canvas 386 163 898 519 arranque_auto 0;
#X msg -15 190 sonidos/33_Car_Trying_to_Start.wav;
#X msg 9 70 sonidos/34_Car_Start.wav;
#X msg 149 260 sonidos/10_motor.wav;
#X msg 83 223 sonidos/13_moto_frena.wav;
#X msg 295 260 sonidos/17_freno.wav;
#X obj 148 292 player;
#X obj 85 254 player;
#X obj 14 223 player;
#X obj 295 289 player;
#X obj 137 415 outlet~;
#X obj -13 128 bng 15 250 50 0 empty empty empty 17 7 0 10 -262144
-1 -1;
#X obj -9 33 bng 15 250 50 0 empty empty empty 17 7 0 10 -262144 -1
-1;
#X obj 95 126 bng 15 250 50 0 empty empty empty 17 7 0 10 -262144 -1
-1;
#X obj 248 179 bng 15 250 50 0 empty empty empty 17 7 0 10 -262144
-1 -1;
#X obj 295 228 bng 15 250 50 0 empty empty empty 17 7 0 10 -262144
-1 -1;
#X obj 342 349 player;
#X obj 342 288 bng 15 250 50 0 empty empty empty 17 7 0 10 -262144
-1 -1;
#X obj 492 367 player;
#X obj 551 240 bng 15 250 50 0 empty empty empty 17 7 0 10 -262144
-1 -1;
#X msg 342 320 sonidos/12_auto_se_acerca.wav;
#X msg 551 315 sonidos/29_Motorcycle_ArrivesAndShutOff.wav;
#X obj 39 137 player;
#X connect 0 0 7 0;
#X connect 1 0 21 0;
#X connect 2 0 5 0;
#X connect 3 0 6 0;
#X connect 4 0 8 0;
#X connect 5 0 9 0;
#X connect 6 0 9 0;
#X connect 7 0 9 0;
#X connect 8 0 9 0;
#X connect 10 0 0 0;
#X connect 11 0 1 0;
#X connect 12 0 3 0;
#X connect 13 0 2 0;
#X connect 14 0 4 0;
#X connect 15 0 9 0;
#X connect 16 0 19 0;
#X connect 17 0 9 0;
#X connect 18 0 20 0;
#X connect 19 0 15 0;
#X connect 20 0 17 0;
#X connect 21 0 9 0;
#X restore 414 111 pd arranque_auto;
#N canvas 846 235 450 300 construccion 0;
#X obj 95 230 outlet~;
#X msg 65 102 sonidos/38_Drill_Electric_Hand_Held.wav;
#X msg 114 129 sonidos/262000__olliehahn12__hammer.wav;
#X msg 168 159 sonidos/337813__blukotek__hammer-v4.wav;
#X msg 221 186 sonidos/49_Window_Glass_Breaking.wav;
#X obj 65 129 player;
#X obj 114 158 player;
#X obj 168 187 player;
#X obj 221 213 player;
#X obj 225 58 bng 15 250 50 0 empty empty empty 17 7 0 10 -262144 -1
-1;
#X obj 174 49 bng 15 250 50 0 empty empty empty 17 7 0 10 -262144 -1
-1;
#X obj 120 52 bng 15 250 50 0 empty empty empty 17 7 0 10 -262144 -1
-1;
#X obj 63 50 bng 15 250 50 0 empty empty empty 17 7 0 10 -262144 -1
-1;
#X connect 1 0 5 0;
#X connect 2 0 6 0;
#X connect 3 0 7 0;
#X connect 4 0 8 0;
#X connect 5 0 0 0;
#X connect 6 0 0 0;
#X connect 7 0 0 0;
#X connect 8 0 0 0;
#X connect 9 0 4 0;
#X connect 10 0 3 0;
#X connect 11 0 2 0;
#X connect 12 0 1 0;
#X restore 447 139 pd construccion;
#X obj 84 338 throw~ sonidosTodos;
#X obj 556 116 player;
#X msg 555 84 sonidos/05_colectivo_frena.wav;
#X obj 555 47 bng 15 250 50 0 empty empty empty 17 7 0 10 -262144 -1
-1;
#X obj 636 27 player;
#X obj 635 -42 bng 15 250 50 0 empty empty empty 17 7 0 10 -262144
-1 -1;
#X msg 635 -5 sonidos/07_puerta_auto.wav;
#X msg 694 -37 sonidos/06_puerta_auto.wav;
#X obj 884 275 catch~ sonidosTodos;
#N canvas 452 78 430 637 filtros_lp-hp-bp 0;
#X obj -11 307 lop~;
#X floatatom 203 149 5 200 3000 0 - - -;
#X obj 28 307 hip~;
#X floatatom 202 178 5 1000 2000 0 - - -;
#X obj 113 113 vradio 30 1 0 4 empty empty empty 0 -8 0 10 -260097
-1 -1 0;
#X obj -21 475 multiplex~ . . . .;
#X obj 65 309 bp~;
#X floatatom 200 211 5 300 5000 0 - - -;
#X floatatom 257 210 5 0 0 0 - - -;
#X text 292 211 Q;
#X text 150 118 NO-FILTER;
#X text 147 149 LowPass;
#X text 147 179 HighPass;
#X text 240 149 Frec.Corte;
#X text 239 178 Frec.Corte;
#X text 236 212 BW;
#X text 147 212 BandPass;
#X obj -20 555 throw~ sonidosTodos;
#X obj -47 211 inlet~;
#X connect 0 0 5 1;
#X connect 1 0 0 1;
#X connect 2 0 5 2;
#X connect 3 0 2 1;
#X connect 4 0 5 0;
#X connect 5 0 17 0;
#X connect 6 0 5 3;
#X connect 7 0 6 1;
#X connect 8 0 6 2;
#X connect 18 0 6 0;
#X connect 18 0 2 0;
#X connect 18 0 0 0;
#X connect 18 0 5 0;
#X coords 0 -1 1 1 210 150 2 100 100;
#X restore 151 771 pd filtros_lp-hp-bp;
#N canvas 452 78 430 637 filtros_lp-hp-bp 0;
#X obj -11 307 lop~;
#X floatatom 203 149 5 200 3000 0 - - -;
#X obj 28 307 hip~;
#X floatatom 202 178 5 1000 2000 0 - - -;
#X obj 113 113 vradio 30 1 0 4 empty empty empty 0 -8 0 10 -260097
-1 -1 0;
#X obj -21 475 multiplex~ . . . .;
#X obj 65 309 bp~;
#X floatatom 200 211 5 300 5000 0 - - -;
#X floatatom 257 210 5 0 0 0 - - -;
#X text 292 211 Q;
#X text 150 118 NO-FILTER;
#X text 147 149 LowPass;
#X text 147 179 HighPass;
#X text 240 149 Frec.Corte;
#X text 239 178 Frec.Corte;
#X text 236 212 BW;
#X text 147 212 BandPass;
#X obj -20 555 throw~ sonidosTodos;
#X obj -47 211 inlet~;
#X connect 0 0 5 1;
#X connect 1 0 0 1;
#X connect 2 0 5 2;
#X connect 3 0 2 1;
#X connect 4 0 5 0;
#X connect 5 0 17 0;
#X connect 6 0 5 3;
#X connect 7 0 6 1;
#X connect 8 0 6 2;
#X connect 18 0 6 0;
#X connect 18 0 2 0;
#X connect 18 0 0 0;
#X connect 18 0 5 0;
#X coords 0 -1 1 1 210 150 2 100 100;
#X restore 387 917 pd filtros_lp-hp-bp;
#N canvas 452 78 430 637 filtros_lp-hp-bp 0;
#X obj -11 307 lop~;
#X floatatom 203 149 5 200 3000 0 - - -;
#X obj 28 307 hip~;
#X floatatom 202 178 5 1000 2000 0 - - -;
#X obj 113 113 vradio 30 1 0 4 empty empty empty 0 -8 0 10 -260097
-1 -1 1;
#X obj -21 475 multiplex~ . . . .;
#X obj 65 309 bp~;
#X floatatom 200 211 5 300 5000 0 - - -;
#X floatatom 257 210 5 0 0 0 - - -;
#X text 292 211 Q;
#X text 150 118 NO-FILTER;
#X text 147 149 LowPass;
#X text 147 179 HighPass;
#X text 240 149 Frec.Corte;
#X text 239 178 Frec.Corte;
#X text 236 212 BW;
#X text 147 212 BandPass;
#X obj -20 555 throw~ sonidosTodos;
#X obj -47 211 inlet~;
#X connect 0 0 5 1;
#X connect 1 0 0 1;
#X connect 2 0 5 2;
#X connect 3 0 2 1;
#X connect 4 0 5 0;
#X connect 5 0 17 0;
#X connect 6 0 5 3;
#X connect 7 0 6 1;
#X connect 8 0 6 2;
#X connect 18 0 6 0;
#X connect 18 0 2 0;
#X connect 18 0 0 0;
#X connect 18 0 5 0;
#X coords 0 -1 1 1 210 150 2 100 100;
#X restore 619 644 pd filtros_lp-hp-bp;
#N canvas 452 78 430 637 filtros_lp-hp-bp 0;
#X obj -11 307 lop~;
#X floatatom 203 149 5 200 3000 0 - - -;
#X obj 28 307 hip~;
#X floatatom 202 178 5 1000 2000 0 - - -;
#X obj 113 113 vradio 30 1 0 4 empty empty empty 0 -8 0 10 -260097
-1 -1 2;
#X obj -21 475 multiplex~ . . . .;
#X obj 65 309 bp~;
#X floatatom 200 211 5 300 5000 0 - - -;
#X floatatom 257 210 5 0 0 0 - - -;
#X text 292 211 Q;
#X text 150 118 NO-FILTER;
#X text 147 149 LowPass;
#X text 147 179 HighPass;
#X text 240 149 Frec.Corte;
#X text 239 178 Frec.Corte;
#X text 236 212 BW;
#X text 147 212 BandPass;
#X obj -20 555 throw~ sonidosTodos;
#X obj -47 211 inlet~;
#X connect 0 0 5 1;
#X connect 1 0 0 1;
#X connect 2 0 5 2;
#X connect 3 0 2 1;
#X connect 4 0 5 0;
#X connect 5 0 17 0;
#X connect 6 0 5 3;
#X connect 7 0 6 1;
#X connect 8 0 6 2;
#X connect 18 0 6 0;
#X connect 18 0 2 0;
#X connect 18 0 0 0;
#X connect 18 0 5 0;
#X coords 0 -1 1 1 210 150 2 100 100;
#X restore 845 637 pd filtros_lp-hp-bp;
#X connect 0 0 26 0;
#X connect 0 1 12 0;
#X connect 0 2 14 0;
#X connect 0 3 15 0;
#X connect 0 4 18 0;
#X connect 1 0 0 15;
#X connect 4 0 20 0;
#X connect 5 0 0 0;
#X connect 6 0 5 0;
#X connect 7 0 0 1;
#X connect 8 0 9 0;
#X connect 9 0 0 2;
#X connect 10 0 11 0;
#X connect 11 0 0 3;
#X connect 12 0 35 0;
#X connect 14 0 36 0;
#X connect 15 0 37 0;
#X connect 16 0 15 1;
#X connect 17 0 10 0;
#X connect 17 0 8 0;
#X connect 17 0 22 0;
#X connect 17 0 6 0;
#X connect 18 0 38 0;
#X connect 19 0 18 1;
#X connect 22 0 23 0;
#X connect 23 0 0 4;
#X connect 24 0 0 5;
#X connect 25 0 0 6;
#X connect 27 0 0 7;
#X connect 28 0 27 0;
#X connect 29 0 28 0;
#X connect 30 0 0 8;
#X connect 31 0 32 0;
#X connect 32 0 30 0;
#X connect 33 0 30 0;
#X connect 34 0 21 0;
#X connect 34 0 21 1;
