#N canvas 678 184 357 511 16;
#X obj -279 81 grid grid1 200 0 90 200 1 10 1 0.25 0.05 10 10 -128
229;
#N canvas 2311 187 505 426 pan 0;
#X obj 259 247 sin;
#X obj 188 247 cos;
#X obj 37 316 *~;
#X obj 120 316 *~;
#X obj 235 211 * 0.0174533;
#X obj 77 248 /~;
#X obj 77 177 lop~;
#X obj 268 97 s \$0-ang;
#X obj 361 97 s \$0-dist;
#X obj 114 104 r \$0-dist;
#X obj 235 179 r \$0-ang;
#X obj 104 217 r \$0-dist;
#X obj 77 64 inlet~;
#X text 80 32 audio;
#X obj 268 60 inlet;
#X obj 361 61 inlet;
#X text 264 28 ángulo;
#X text 347 28 distancia;
#X obj 36 353 outlet~;
#X obj 119 353 outlet~;
#X obj 114 138 maxlib/scale 1 10 8000 1500;
#X connect 0 0 3 1;
#X connect 1 0 2 1;
#X connect 2 0 18 0;
#X connect 3 0 19 0;
#X connect 4 0 1 0;
#X connect 4 0 0 0;
#X connect 5 0 2 0;
#X connect 5 0 3 0;
#X connect 6 0 5 0;
#X connect 9 0 20 0;
#X connect 10 0 4 0;
#X connect 11 0 5 1;
#X connect 12 0 6 0;
#X connect 14 0 7 0;
#X connect 15 0 8 0;
#X connect 20 0 6 1;
#X restore -307 313 pd pan;
#X obj -307 355 output~;
#X obj -307 48 inlet;
#X connect 0 0 1 1;
#X connect 0 1 1 2;
#X connect 1 0 2 0;
#X connect 1 1 2 1;
#X connect 3 0 1 0;
