#N canvas -31 523 587 331 10;
#X obj 57 101 t b b;
#X msg 56 129 1;
#X obj 56 160 readsf~;
#X obj 57 189 outlet~;
#X obj 162 37 inlet;
#X obj 167 87 prepend open;
#X obj 168 120 prepend set;
#X msg 169 161 open sonidos/402927__crazyadamos__baby-cry.wav;
#X connect 0 0 1 0;
#X connect 0 1 7 0;
#X connect 1 0 2 0;
#X connect 2 0 3 0;
#X connect 4 0 5 0;
#X connect 4 0 0 0;
#X connect 5 0 6 0;
#X connect 6 0 7 0;
#X connect 7 0 2 0;
